<?xml version="1.0" encoding="UTF-8" standalone="no"?>
<svg
   xmlns:dc="http://purl.org/dc/elements/1.1/"
   xmlns:cc="http://creativecommons.org/ns#"
   xmlns:rdf="http://www.w3.org/1999/02/22-rdf-syntax-ns#"
   xmlns:svg="http://www.w3.org/2000/svg"
   xmlns="http://www.w3.org/2000/svg"
   xmlns:sodipodi="http://sodipodi.sourceforge.net/DTD/sodipodi-0.dtd"
   xmlns:inkscape="http://www.inkscape.org/namespaces/inkscape"
   version="1.1"
   id="svg2"
   xml:space="preserve"
   width="798.53333"
   height="239.64"
   viewBox="0 0 798.53333 239.64"
   sodipodi:docname="BarioNeal-OneLine.eps"><metadata
     id="metadata8"><rdf:RDF><cc:Work
         rdf:about=""><dc:format>image/svg+xml</dc:format><dc:type
           rdf:resource="http://purl.org/dc/dcmitype/StillImage" /></cc:Work></rdf:RDF></metadata><defs
     id="defs6" /><sodipodi:namedview
     pagecolor="#ffffff"
     bordercolor="#666666"
     borderopacity="1"
     objecttolerance="10"
     gridtolerance="10"
     guidetolerance="10"
     inkscape:pageopacity="0"
     inkscape:pageshadow="2"
     inkscape:window-width="640"
     inkscape:window-height="480"
     id="namedview4" /><g
     id="g10"
     inkscape:groupmode="layer"
     inkscape:label="ink_ext_XXXXXX"
     transform="matrix(1.3333333,0,0,-1.3333333,0,239.64)"><g
       id="g12"
       transform="scale(0.1)"><path
         d="m 2761.25,1797.29 h -23.42 c -182.19,0 -270.73,-132.41 -270.73,-404.85 V 402.57 C 2467.1,131.672 2555.64,0 2737.83,0 h 23.42 c 182.21,0 270.78,131.672 270.78,402.57 v 989.87 c 0,272.44 -88.57,404.85 -270.78,404.85 M 2986.41,402.57 c 0,-319.9489 -128.49,-356.9684 -225.16,-356.9684 h -23.42 c -96.62,0 -225.12,37.0195 -225.12,356.9684 v 989.87 c 0,245.09 71.54,359.26 225.12,359.26 h 23.42 c 153.63,0 225.16,-114.17 225.16,-359.26 V 402.57"
         style="fill:#231f20;fill-opacity:1;fill-rule:nonzero;stroke:none"
         id="path14" /><path
         d="m 2263.35,1774.57 h -45.59 V 31.5313 h 45.59 V 1774.57"
         style="fill:#231f20;fill-opacity:1;fill-rule:nonzero;stroke:none"
         id="path16" /><path
         d="M 167.77,26.3086 V 26.2305 C 416.387,26.5117 618.641,228.82 618.641,477.23 c 0,222.54 -161.996,400.528 -374.028,436.594 155.567,71.961 263.965,230.426 263.965,413.946 0,250.88 -195.98,447.39 -446.1483,447.39 H 3.66797 v -0.59 H 0 V 28.3711 c 0,0 165.688,-2.1211 167.77,-2.0625 M 45.5938,1729.55 h 16.8359 c 224.6053,0 400.5543,-176.46 400.5543,-401.78 0,-210.41 -158.195,-384.36 -360.808,-407.043 H 45.5938 Z m 0,-857.402 c 6.9843,0.118 10.7343,0.254 12.9921,0.415 14.8321,0.039 29.4454,0.839 43.9491,2.296 l 66.586,-0.156 c 222.719,0 403.906,-174.305 403.906,-397.473 0,-223.269 -181.812,-405.1402 -405.316,-405.4019 l -2.594,-0.0195 C 153.816,71.7305 93.4648,72.2813 45.5938,72.7305 V 872.148"
         style="fill:#231f20;fill-opacity:1;fill-rule:nonzero;stroke:none"
         id="path18" /><path
         d="m 1245,403.672 h -1.29 L 1025.83,1774.59 H 986.633 L 710.387,31.5508 h 46.16 L 808.07,358.078 h 396.65 l 51.52,-326.5272 h 46.19 L 1245,395.359 Z m -429.727,0 191.117,1211.098 191.15,-1211.098 z"
         style="fill:#231f20;fill-opacity:1;fill-rule:nonzero;stroke:none"
         id="path20" /><path
         d="m 5395.34,401.34 h -1.29 l -217.86,1382.31 -39.22,-0.02 L 4860.73,29.1992 h 46.16 l 51.52,326.5198 h 396.65 l 51.53,-326.5198 h 46.18 L 5395.34,393.02 Z m -429.73,0 191.11,1222.47 191.16,-1222.47 z"
         style="fill:#231f20;fill-opacity:1;fill-rule:nonzero;stroke:none"
         id="path22" /><path
         d="m 1843.79,934.484 c 133.55,78.436 223.45,223.426 223.45,388.996 0,240.65 -189.39,437.85 -426.73,449.76 v 1 h -132.32 v 0.33 H 1462.6 V 31.5508 h 45.59 V 873.402 c 59.35,-0.664 86.6,-0.941 99.59,-0.941 4.08,0 6.75,0.019 8.6,0.082 v -0.082 c 65.8,0.082 128.31,14.445 184.71,39.945 L 1940.1,31.5508 h 46.16 z m -50.09,24.735 c -53.6,-26.25 -113.79,-41.059 -177.38,-41.117 l -2.55,-0.043 c -11.09,-0.059 -65.57,0.511 -105.58,0.98 v 809.491 l 109.52,-0.34 c 222.72,0 403.93,-181.54 403.93,-404.71 0,-153.09 -85.48,-286.7 -211.28,-355.648 l -16.66,-8.613"
         style="fill:#231f20;fill-opacity:1;fill-rule:nonzero;stroke:none"
         id="path24" /><path
         d="M 5610.73,1782.99 V 29.5313 h 0.64 v -0.3516 h 377.66 V 74.7891 H 5656.32 V 1782.99 h -45.59"
         style="fill:#231f20;fill-opacity:1;fill-rule:nonzero;stroke:none"
         id="path26" /><path
         d="m 4054.77,179.148 -505.65,1587.632 -2.81,8.83 -2.43,7.04 h -2.25 -1.85 -15.93 -23.13 v -7.37 -0.63 -6.1 V 29.1992 h 45.59 V 1625.35 l 503.03,-1579.3617 5.23,-16.7891 h 17.15 28.67 V 1782.65 h -45.62 V 179.148"
         style="fill:#231f20;fill-opacity:1;fill-rule:nonzero;stroke:none"
         id="path28" /><path
         d="m 4277.18,1782.99 h -1.51 V 29.5313 h 1.51 v -0.3321 h 443.3 v 45.5899 h -399.2 V 883.453 h 350.34 v 45.613 h -350.34 v 808.644 h 399.2 v 45.59 h -443.3 v -0.31"
         style="fill:#231f20;fill-opacity:1;fill-rule:nonzero;stroke:none"
         id="path30" /></g></g></svg>
